<svg width="21" height="21" viewBox="0 0 21 21" fill="none" xmlns="http://www.w3.org/2000/svg">
<path id="Vector" d="M12.0084 0.341709C11.7896 0.560501 11.6667 0.857247 11.6667 1.16667V8.16667C11.6667 8.47609 11.7896 8.77283 12.0084 8.99162C12.2272 9.21042 12.5239 9.33333 12.8333 9.33333H19.8333C20.1428 9.33333 20.4395 9.21042 20.6583 8.99162C20.8771 8.77283 21 8.47609 21 8.16667V1.16667C21 0.857247 20.8771 0.560501 20.6583 0.341709H12.0084ZM12.0084 0.341709L12.3619 0.695262M12.0084 0.341709L12.3619 0.695262M0.341709 20.6583C0.122916 20.4395 0 20.1428 0 19.8333V12.8333C0 12.5239 0.122916 12.2272 0.341709 12.0084M0.341709 20.6583V12.0084M0.341709 20.6583C0.560501 20.8771 0.857247 21 1.16667 21H8.16667C8.47609 21 8.77283 20.8771 8.99162 20.6583C9.21042 20.4395 9.33333 20.1428 9.33333 19.8333V12.8333C9.33333 12.5239 9.21042 12.2272 8.99162 12.0084C8.77283 11.7896 8.47609 11.6667 8.16667 11.6667H1.16667C0.857247 11.6667 0.560501 11.7896 0.341709 12.0084M0.341709 20.6583V12.0084M0.341709 12.0084L0.695262 12.3619M0.341709 12.0084L0.695262 12.3619M12.3619 0.695262C12.487 0.570238 12.6565 0.5 12.8333 0.5H19.8333C20.0101 0.5 20.1797 0.570238 20.3047 0.695262L20.6578 0.342184L20.3047 0.695263C20.4298 0.820286 20.5 0.989855 20.5 1.16667V8.16667C20.5 8.34348 20.4298 8.51305 20.3047 8.63807C20.1797 8.76309 20.0101 8.83333 19.8333 8.83333H12.8333C12.6565 8.83333 12.487 8.7631 12.3619 8.63807C12.2369 8.51305 12.1667 8.34348 12.1667 8.16667V1.16667C12.1667 0.989856 12.2369 0.820287 12.3619 0.695262ZM0.695262 12.3619C0.820287 12.2369 0.989856 12.1667 1.16667 12.1667H8.16667C8.34348 12.1667 8.51305 12.2369 8.63807 12.3619C8.7631 12.487 8.83333 12.6565 8.83333 12.8333V19.8333C8.83333 20.0101 8.76309 20.1797 8.63807 20.3047C8.51305 20.4298 8.34348 20.5 8.16667 20.5H1.16667C0.989855 20.5 0.820286 20.4298 0.695263 20.3047L0.342516 20.6575L0.695262 20.3047C0.570238 20.1797 0.5 20.0101 0.5 19.8333V12.8333C0.5 12.6565 0.570238 12.487 0.695262 12.3619ZM8.63807 0.695262L8.9902 0.343132L8.63807 0.695262C8.76309 0.820286 8.83333 0.989856 8.83333 1.16667V8.16667C8.83333 8.34348 8.76309 8.51305 8.63807 8.63807C8.51305 8.76309 8.34348 8.83333 8.16667 8.83333H1.16667C0.989856 8.83333 0.820286 8.76309 0.695262 8.63807L0.34332 8.99001L0.695262 8.63807C0.570238 8.51305 0.5 8.34348 0.5 8.16667V1.16667C0.5 0.989856 0.570238 0.820286 0.695262 0.695262C0.820286 0.570238 0.989856 0.5 1.16667 0.5H8.16667C8.34348 0.5 8.51305 0.570238 8.63807 0.695262ZM20.5 16.3333C20.5 18.6309 18.6309 20.5 16.3333 20.5C14.0358 20.5 12.1667 18.6309 12.1667 16.3333C12.1667 14.0358 14.0358 12.1667 16.3333 12.1667C18.6309 12.1667 20.5 14.0358 20.5 16.3333Z" stroke="#1A1A1A"/>
</svg>
