<svg width="26" height="26" viewBox="0 0 26 26" fill="none" xmlns="http://www.w3.org/2000/svg">
<g id="fluent:chat-20-regular">
<path id="Vector" d="M12.9996 2.59998C14.5702 2.60088 16.1201 2.95748 17.5331 3.64301C18.9462 4.32855 20.1856 5.3252 21.1584 6.5582C22.1312 7.79119 22.8121 9.2285 23.15 10.7623C23.4879 12.296 23.4741 13.8864 23.1095 15.414C22.745 16.9417 22.0392 18.3669 21.0451 19.5828C20.051 20.7987 18.7944 21.7736 17.3697 22.4345C15.9449 23.0953 14.389 23.4249 12.8187 23.3985C11.2484 23.3721 9.70442 22.9904 8.30271 22.282L8.14541 22.1975L3.40691 23.3805C3.31572 23.4034 3.22063 23.4063 3.12822 23.3889C3.03581 23.3715 2.94827 23.3343 2.87165 23.2798C2.79502 23.2253 2.73113 23.1548 2.68439 23.0732C2.63765 22.9916 2.60917 22.9008 2.60091 22.8072V22.7006L2.61911 22.5927L3.80211 17.8555L3.72021 17.6995C3.12531 16.5284 2.75911 15.2546 2.64121 13.9464L2.60871 13.4498L2.59961 13C2.59961 10.2417 3.69532 7.59644 5.6457 5.64606C7.59608 3.69569 10.2414 2.59998 12.9996 2.59998ZM12.9996 3.89998C11.4116 3.89972 9.85119 4.31502 8.4734 5.10461C7.09562 5.8942 5.94844 7.03058 5.14587 8.40085C4.3433 9.77111 3.91327 11.3275 3.89853 12.9155C3.88378 14.5034 4.28482 16.0675 5.06181 17.4525C5.12213 17.5602 5.15054 17.6828 5.14371 17.8061L5.12551 17.9283L4.14271 21.8556L8.07391 20.8754C8.15383 20.8557 8.23675 20.8513 8.31831 20.8624L8.43661 20.8897L8.54971 20.9404C9.76306 21.6196 11.1159 22.0118 12.5045 22.0867C13.893 22.1617 15.2802 21.9174 16.5596 21.3727C17.839 20.828 18.9766 19.9974 19.885 18.9445C20.7933 17.8917 21.4483 16.6447 21.7997 15.2992C22.151 13.9538 22.1894 12.5458 21.9117 11.1832C21.6341 9.82066 21.0479 8.53986 20.1982 7.43915C19.3485 6.33844 18.2578 5.4471 17.0099 4.83358C15.762 4.22007 14.3902 3.90069 12.9996 3.89998ZM13.6496 14.3C13.812 14.2997 13.9687 14.3602 14.0887 14.4696C14.2088 14.5791 14.2835 14.7295 14.2981 14.8912C14.3128 15.053 14.2664 15.2144 14.168 15.3437C14.0696 15.4729 13.9264 15.5606 13.7666 15.5896L13.6496 15.6H9.74961C9.58718 15.6003 9.43052 15.5397 9.31049 15.4303C9.19046 15.3209 9.11575 15.1705 9.10107 15.0087C9.0864 14.8469 9.13282 14.6855 9.23119 14.5563C9.32957 14.427 9.47278 14.3393 9.63261 14.3104L9.74961 14.3H13.6496ZM16.2496 10.4C16.412 10.3997 16.5687 10.4602 16.6887 10.5696C16.8088 10.6791 16.8835 10.8295 16.8981 10.9912C16.9128 11.153 16.8664 11.3144 16.768 11.4437C16.6696 11.5729 16.5264 11.6606 16.3666 11.6896L16.2496 11.7H9.74961C9.58718 11.7003 9.43052 11.6397 9.31049 11.5303C9.19046 11.4209 9.11575 11.2705 9.10107 11.1087C9.0864 10.9469 9.13282 10.7855 9.23119 10.6563C9.32957 10.527 9.47278 10.4393 9.63261 10.4104L9.74961 10.4H16.2496Z" fill="#1A1A1A"/>
</g>
</svg>
