<svg width="26" height="26" viewBox="0 0 26 26" fill="none" xmlns="http://www.w3.org/2000/svg">
<g id="fluent:chat-20-filled">
<path id="Vector" d="M12.9996 2.59998C14.5702 2.60088 16.1201 2.95748 17.5331 3.64301C18.9462 4.32855 20.1856 5.3252 21.1584 6.5582C22.1312 7.79119 22.8121 9.2285 23.15 10.7623C23.4879 12.296 23.4741 13.8864 23.1095 15.414C22.745 16.9417 22.0392 18.3669 21.0451 19.5828C20.051 20.7987 18.7944 21.7736 17.3697 22.4345C15.9449 23.0953 14.389 23.4249 12.8187 23.3985C11.2484 23.3721 9.70442 22.9904 8.30271 22.282L8.14541 22.1975L3.40691 23.3805C3.31572 23.4034 3.22063 23.4063 3.12822 23.3889C3.03581 23.3715 2.94827 23.3343 2.87165 23.2798C2.79502 23.2253 2.73113 23.1548 2.68439 23.0732C2.63765 22.9916 2.60917 22.9008 2.60091 22.8072V22.7006L2.61911 22.5927L3.80211 17.8555L3.72021 17.6995C3.12531 16.5284 2.75911 15.2546 2.64121 13.9464L2.60871 13.4498L2.59961 13C2.59961 10.2417 3.69532 7.59644 5.6457 5.64606C7.59608 3.69569 10.2414 2.59998 12.9996 2.59998ZM13.6496 14.3H9.74961L9.63261 14.3104C9.48274 14.3375 9.34716 14.4164 9.24953 14.5333C9.1519 14.6502 9.09842 14.7977 9.09842 14.95C9.09842 15.1023 9.1519 15.2497 9.24953 15.3666C9.34716 15.4835 9.48274 15.5624 9.63261 15.5896L9.74961 15.6H13.6496L13.7666 15.5896C13.9165 15.5624 14.0521 15.4835 14.1497 15.3666C14.2473 15.2497 14.3008 15.1023 14.3008 14.95C14.3008 14.7977 14.2473 14.6502 14.1497 14.5333C14.0521 14.4164 13.9165 14.3375 13.7666 14.3104L13.6496 14.3ZM16.2496 10.4H9.74961L9.63261 10.4104C9.48274 10.4375 9.34716 10.5164 9.24953 10.6333C9.1519 10.7502 9.09842 10.8977 9.09842 11.05C9.09842 11.2023 9.1519 11.3497 9.24953 11.4666C9.34716 11.5835 9.48274 11.6624 9.63261 11.6896L9.74961 11.7H16.2496L16.3666 11.6896C16.5165 11.6624 16.6521 11.5835 16.7497 11.4666C16.8473 11.3497 16.9008 11.2023 16.9008 11.05C16.9008 10.8977 16.8473 10.7502 16.7497 10.6333C16.6521 10.5164 16.5165 10.4375 16.3666 10.4104L16.2496 10.4Z" fill="#1A1A1A"/>
</g>
</svg>
