<svg width="30" height="30" viewBox="0 0 30 30" fill="none" xmlns="http://www.w3.org/2000/svg">
<g id="intermediary 1 (traced)">
<g id="Black">
<path id="Vector" d="M14.0505 4.00195C13.2712 4.27148 12.6384 4.86914 12.3688 5.58984C12.0934 6.33398 12.0583 7.94531 12.3102 8.68945L12.4274 9.03516L11.988 9.44531C10.8981 10.4473 10.4587 11.5723 10.4997 13.2715C10.5173 14.1328 10.5173 14.1328 10.6813 14.2734L10.8454 14.4141H12.6325H14.4137V15.709V16.998L14.2673 16.8809C13.8571 16.5586 13.3884 16.7227 13.2184 17.2441C13.154 17.4492 13.3532 17.7305 14.0446 18.416C14.7243 19.0781 14.7536 19.1016 14.9997 19.1016C15.2458 19.1016 15.2751 19.0781 15.9489 18.4102C16.7106 17.6602 16.7634 17.5957 16.7692 17.3379C16.7868 16.8047 16.1774 16.5352 15.7321 16.8809L15.5856 16.998V15.709V14.4141H17.3493C18.445 14.4141 19.154 14.3906 19.2243 14.3555C19.2829 14.3203 19.3766 14.2148 19.4235 14.1211C19.5466 13.8809 19.5466 12.5156 19.4177 11.9062C19.2243 10.957 18.738 10.1074 18.0114 9.44531L17.5719 9.04102L17.6891 8.68945C17.9411 7.94531 17.9059 6.33398 17.6305 5.58984C17.3552 4.85156 16.6755 4.22461 15.8962 3.98438C15.3512 3.81445 14.5719 3.82617 14.0505 4.00195ZM15.6735 5.23828C16.0368 5.4082 16.3005 5.68359 16.4762 6.06445C16.5934 6.32812 16.611 6.44531 16.611 7.23633C16.6052 8.0332 16.5934 8.14453 16.4704 8.42578C16.2184 8.98828 15.6208 9.375 14.9997 9.375C14.3786 9.375 13.7809 8.98828 13.529 8.42578C13.4059 8.14453 13.3942 8.0332 13.3942 7.23633C13.3942 6.43945 13.4059 6.32812 13.529 6.04688C13.6872 5.69531 14.1266 5.26758 14.4255 5.17383C14.7887 5.05664 15.3512 5.08594 15.6735 5.23828ZM13.4821 10.2012C13.863 10.4707 14.2848 10.5762 14.9997 10.5762C15.7145 10.5762 16.1364 10.4707 16.5173 10.2012C16.611 10.1309 16.7282 10.0781 16.7809 10.0781C16.8337 10.0781 17.0563 10.2539 17.2731 10.4707C17.9177 11.1211 18.2809 11.959 18.2809 12.8145V13.1836H14.9997H11.7184V12.8145C11.7184 11.959 12.0817 11.1211 12.7262 10.4707C12.943 10.2539 13.1657 10.0781 13.2184 10.0781C13.2712 10.0781 13.3884 10.1309 13.4821 10.2012Z" fill="#1A1A1A"/>
<path id="Vector_2" d="M3.68555 15.6738C3.04688 15.8438 2.37305 16.3359 2.08008 16.8457C1.72266 17.4551 1.67578 17.6895 1.66992 18.9551C1.66992 20.0391 1.68164 20.1504 1.80469 20.4492L1.93359 20.7715L1.6875 20.9766C0.890625 21.6211 0.363281 22.4414 0.111328 23.4316C0.0234375 23.7715 0 24.0762 0 24.8496V25.8281L0.181641 25.9805C0.357422 26.127 0.380859 26.1328 1.23047 26.1328C2.06836 26.1328 2.10938 26.127 2.26758 25.9922C2.4082 25.8691 2.43164 25.8047 2.43164 25.5527C2.43164 25.3066 2.40234 25.2305 2.27344 25.1016C2.13867 24.9609 2.0625 24.9375 1.64062 24.9141L1.16602 24.8848L1.20703 24.4395C1.2832 23.4668 1.59961 22.7754 2.26172 22.1484L2.69531 21.7383L2.96484 21.9141C3.43945 22.2129 3.76758 22.2949 4.48242 22.2949C5.19727 22.2949 5.52539 22.2129 6 21.9141L6.26953 21.7383L6.70312 22.1484C7.35938 22.7754 7.68164 23.4668 7.76367 24.4395L7.80469 24.8848L7.32422 24.9141C6.90234 24.9375 6.82617 24.9609 6.69141 25.1016C6.5625 25.2305 6.5332 25.3066 6.5332 25.5527C6.5332 25.8047 6.55664 25.8691 6.69727 25.9922C6.85547 26.127 6.89648 26.1328 7.73438 26.1328H8.61328L8.80078 25.9688C8.97656 25.8105 8.98828 25.7695 9.01172 25.3066C9.04688 24.5977 8.93555 23.6367 8.75391 23.0801C8.49609 22.3066 7.97461 21.5391 7.37695 21.0586L7.04297 20.7949L7.16602 20.4609C7.26562 20.1855 7.28906 19.9512 7.3125 19.166C7.3418 18.0527 7.2832 17.6719 6.99609 17.0742C6.67383 16.3945 6.0293 15.873 5.25586 15.668C4.88086 15.5684 4.04883 15.5684 3.68555 15.6738ZM5.12695 16.9277C5.47852 17.0859 5.73047 17.3262 5.90625 17.6602C6.05273 17.9355 6.06445 18.0234 6.08203 18.8203C6.11133 19.8516 6.03516 20.1504 5.66016 20.5547C4.99805 21.2754 3.9668 21.2754 3.30469 20.5547C2.92969 20.1445 2.85352 19.8457 2.88281 18.8203C2.90625 18.0293 2.91797 17.9355 3.05859 17.6602C3.35156 17.0977 3.82617 16.8164 4.48242 16.8164C4.75195 16.8164 4.96875 16.8574 5.12695 16.9277Z" fill="#1A1A1A"/>
<path id="Vector_3" d="M24.7207 15.6738C23.9649 15.8789 23.3203 16.4063 23.0039 17.0742C22.7168 17.6719 22.6582 18.0527 22.6875 19.166C22.7109 19.9512 22.7344 20.1855 22.834 20.4609L22.957 20.7949L22.6231 21.0586C22.0254 21.5391 21.5039 22.3066 21.2461 23.0801C21.0586 23.6484 20.9531 24.6152 20.9942 25.3125C21.0234 25.7754 21.0352 25.8164 21.2051 25.9688L21.3867 26.1328H25.5117H29.6367L29.8184 25.9805L30 25.8281V24.8496C30 24.0762 29.9766 23.7715 29.8887 23.4316C29.6367 22.4414 29.1152 21.627 28.3125 20.9766L28.0664 20.7715L28.1953 20.4492C28.3184 20.1504 28.3301 20.0391 28.3301 18.9551C28.3242 17.6895 28.2774 17.4551 27.9199 16.8457C27.6211 16.3242 26.9473 15.8438 26.291 15.668C25.916 15.5684 25.084 15.5684 24.7207 15.6738ZM26.2324 16.9688C26.5606 17.127 26.7656 17.3379 26.9707 17.7188C27.082 17.9238 27.0996 18.0762 27.1172 18.791C27.1524 20.0332 26.959 20.5254 26.2969 20.8945C26.0274 21.041 25.9277 21.0645 25.5176 21.0645C25.1074 21.0645 25.0078 21.041 24.7324 20.8887C24.3633 20.6836 24.1172 20.373 23.9942 19.9629C23.8945 19.623 23.8711 18.3164 23.9649 17.9883C24.0527 17.6602 24.3457 17.2441 24.6094 17.0742C25.1192 16.7344 25.6699 16.6992 26.2324 16.9688ZM24.5742 22.1895C24.791 22.2656 25.0488 22.2949 25.5176 22.2949C26.2324 22.2949 26.5606 22.2129 27.0352 21.9141L27.3047 21.7383L27.7383 22.1484C28.4004 22.7813 28.7168 23.4668 28.7988 24.4453L28.834 24.9023H25.5117H22.1953L22.2305 24.4453C22.3184 23.4668 22.6406 22.7754 23.2969 22.1484L23.7305 21.7383L24 21.9141C24.1524 22.0078 24.4102 22.1309 24.5742 22.1895Z" fill="#1A1A1A"/>
<path id="Vector_4" d="M14.7305 20.4727C14.5898 20.5371 14.4434 20.7481 13.9746 21.5684C13.6582 22.1309 13.3535 22.6641 13.3008 22.752L13.2012 22.916L12.9609 22.5059C12.6621 22.0078 12.5801 21.9727 11.6367 21.9727C10.5469 21.9727 10.3125 22.084 10.3125 22.6055C10.3125 22.8106 10.3477 22.8926 10.4824 23.0332C10.6523 23.1973 10.6641 23.2031 11.291 23.2031H11.9238L12.3223 23.9063C12.5449 24.293 12.7793 24.6504 12.8496 24.6973C13.043 24.832 13.4355 24.8086 13.5996 24.6504C13.6758 24.5801 14.0156 24.0234 14.3555 23.4199C14.6953 22.8223 14.9824 22.3242 15 22.3242C15.0176 22.3242 15.3047 22.8164 15.6445 23.4199C15.9844 24.0234 16.3242 24.5801 16.4004 24.6504C16.5645 24.8086 16.957 24.832 17.1504 24.6973C17.2207 24.6504 17.4551 24.293 17.6777 23.9063L18.0762 23.2031H18.7031C19.2891 23.2031 19.3359 23.1914 19.5059 23.0508C19.6641 22.9219 19.6875 22.8574 19.6875 22.6231C19.6875 22.084 19.4648 21.9727 18.3633 21.9727C17.4199 21.9727 17.3379 22.002 17.0449 22.5117L16.8047 22.9219L16.7051 22.752C16.6465 22.6641 16.3418 22.1309 16.0254 21.5684C15.5391 20.7129 15.416 20.5371 15.252 20.4727C15.0234 20.3731 14.9648 20.3731 14.7305 20.4727Z" fill="#1A1A1A"/>
<path id="Vector_5" d="M4.27764 24.9668C3.93193 25.1074 3.78545 25.4473 3.92607 25.7871C4.02568 26.0273 4.20147 26.1328 4.49443 26.1328C4.84014 26.1328 5.03936 25.9512 5.08037 25.5996C5.10967 25.3594 5.09209 25.3066 4.94561 25.1484C4.75811 24.9492 4.50029 24.8789 4.27764 24.9668Z" fill="#1A1A1A"/>
</g>
</g>
</svg>
