<svg width="27" height="30" viewBox="0 0 27 30" fill="none" xmlns="http://www.w3.org/2000/svg">
<g id="Black">
<path id="Vector" d="M13.1777 0.111328L13.0371 0.222656L13.0195 2.7832L13.002 5.33789L13.1777 5.50781C13.2949 5.63086 13.4062 5.68359 13.5352 5.68359C13.6641 5.68359 13.7754 5.63086 13.8926 5.50781L14.0684 5.33789L14.0508 2.7832L14.0332 0.222656L13.8926 0.111328C13.8105 0.046875 13.6641 0 13.5352 0C13.4062 0 13.2598 0.046875 13.1777 0.111328Z" fill="#1A1A1A"/>
<path id="Vector_2" d="M9.48633 2.57227C9.3457 2.68359 9.3457 2.69531 9.32812 4.00781L9.31055 5.33203L9.48633 5.50781C9.60352 5.63086 9.71484 5.68359 9.84375 5.68359C9.97266 5.68359 10.084 5.63086 10.2012 5.50781L10.377 5.33203L10.3594 4.00781C10.3418 2.69531 10.3418 2.68359 10.2012 2.57227C10.1191 2.50781 9.97266 2.46094 9.84375 2.46094C9.71484 2.46094 9.56836 2.50781 9.48633 2.57227Z" fill="#1A1A1A"/>
<path id="Vector_3" d="M16.8457 2.60745C16.6992 2.74808 16.6992 2.74808 16.6992 4.00784C16.6992 5.34964 16.7285 5.50784 16.9746 5.61917C17.2148 5.7305 17.4023 5.69534 17.584 5.50784L17.7598 5.33206L17.7422 4.00784C17.7246 2.69534 17.7246 2.68363 17.584 2.5723C17.3848 2.40824 17.0215 2.42581 16.8457 2.60745Z" fill="#1A1A1A"/>
<path id="Vector_4" d="M12.7153 6.56836C10.7465 6.81445 8.98287 7.81641 7.82858 9.35742C5.62545 12.293 5.95943 16.3535 8.61373 18.8906C9.59225 19.8223 10.8169 20.4551 12.1704 20.7246C12.8676 20.8594 14.2036 20.8594 14.9008 20.7246C17.8364 20.1387 20.1215 17.7949 20.5962 14.8828C21.1411 11.5137 19.3305 8.29102 16.1958 7.03711C15.1704 6.62695 13.7583 6.43359 12.7153 6.56836ZM15.0122 7.75781C16.1372 8.04492 17.1098 8.61914 17.9419 9.48047C18.7622 10.3301 19.2895 11.3262 19.5239 12.4746C19.6176 12.9375 19.6352 13.1895 19.6118 13.8867C19.5708 15.1523 19.3012 16.0195 18.6391 17.0332C17.104 19.3535 14.2036 20.3672 11.6137 19.4883C9.66842 18.8262 8.24459 17.3262 7.64108 15.3105C7.41842 14.5781 7.3774 13.2891 7.54733 12.4746C7.7817 11.332 8.29733 10.3594 9.11764 9.49805C10.0903 8.47266 11.3032 7.83984 12.6919 7.61719C13.2719 7.5293 14.3676 7.59375 15.0122 7.75781Z" fill="#1A1A1A"/>
<path id="Vector_5" d="M13.1954 9.06445C13.0665 9.11719 12.9493 9.42187 12.9493 9.7207C12.9493 9.99609 12.9375 10.0137 12.7793 10.0488C12.5157 10.1074 11.9883 10.5117 11.7891 10.8164C11.502 11.2441 11.4083 11.5957 11.4375 12.1465C11.4493 12.5098 11.4961 12.709 11.6075 12.9492C11.9239 13.623 12.6094 14.0918 13.3946 14.1621C13.8692 14.2031 14.1739 14.3379 14.379 14.6074C14.795 15.1523 14.6075 15.9258 13.9864 16.2246C13.6641 16.3828 13.4063 16.3828 13.084 16.2246C12.7442 16.0605 12.5508 15.791 12.4629 15.3633C12.3692 14.9062 12.2403 14.7656 11.9239 14.7656C11.7422 14.7656 11.6485 14.8008 11.5489 14.9062C11.4258 15.0352 11.4141 15.0996 11.4375 15.4512C11.4786 16.1777 11.9649 16.8867 12.627 17.1797L12.9375 17.3145L12.961 17.6895C12.9903 18.1289 13.1192 18.2812 13.4708 18.2812C13.8223 18.2754 14.004 18.0586 14.004 17.625V17.3672L14.379 17.2031C14.8243 17.0156 15.2872 16.5586 15.4864 16.1309C15.5918 15.9023 15.6153 15.7441 15.6153 15.2637C15.6153 14.748 15.5977 14.6367 15.4571 14.3437C15.1348 13.6523 14.5079 13.2246 13.6817 13.1367C13.418 13.1074 13.125 13.0371 13.0254 12.9844C12.6211 12.7793 12.3692 12.2285 12.4864 11.8066C12.6739 11.127 13.3594 10.7871 13.9805 11.0684C14.3086 11.2148 14.5196 11.5078 14.5958 11.9297C14.6836 12.375 14.8301 12.5391 15.129 12.5391C15.293 12.5391 15.3985 12.498 15.5098 12.3867C15.6504 12.2461 15.6563 12.2051 15.6329 11.8477C15.6036 11.4141 15.4512 11.0156 15.1934 10.6934C14.9942 10.4414 14.5254 10.1133 14.2266 10.0195C14.0098 9.95508 14.004 9.94336 14.004 9.69141C14.004 9.41016 13.9278 9.2168 13.7754 9.09961C13.6817 9.0293 13.336 9.00586 13.1954 9.06445Z" fill="#1A1A1A"/>
<path id="Vector_6" d="M0.463104 20.127C0.375213 20.1739 0.287323 20.2559 0.263885 20.3145C0.228729 20.4141 0.00607271 27.5098 0.000213337 28.7578C0.000213337 29.6543 -0.052521 29.625 1.50021 29.6719C2.17404 29.6895 3.14084 29.7246 3.64474 29.7422L4.56467 29.7774L4.74631 29.6016C4.88693 29.4551 4.92209 29.3731 4.92209 29.1621C4.92209 29.0157 4.95724 28.875 4.99826 28.8457C5.03342 28.8106 5.3381 28.6465 5.66623 28.4766C6.62717 27.9844 6.39865 27.961 10.0783 28.9922C11.801 29.4785 13.3713 29.9004 13.5588 29.9356C14.0627 30.0293 15.3166 30.0176 15.8615 29.9121C16.4533 29.8008 17.0979 29.5782 17.4846 29.3614C18.2229 28.9453 26.1799 23.7598 26.3322 23.6016C26.549 23.3672 26.5139 23.127 26.1975 22.711C25.635 21.961 24.551 21.5801 23.6428 21.8145C23.4436 21.8672 22.383 22.3301 21.2756 22.8575C19.4826 23.7012 19.2541 23.795 19.2072 23.7071C19.049 23.4258 18.6213 22.9805 18.299 22.7578C17.5373 22.2364 17.2092 22.1836 14.2678 22.0957C12.1994 22.0371 12.2287 22.043 11.1154 21.5039C10.2424 21.0821 9.57443 20.8828 8.72482 20.7891C7.68771 20.6719 6.45139 20.8653 5.48459 21.293L5.15646 21.4395V20.9532C5.15646 20.5254 5.13889 20.4492 5.0217 20.3203C4.88107 20.1739 4.86935 20.168 3.65646 20.1328C2.98264 20.1153 2.0217 20.0801 1.52365 20.0684C0.78537 20.045 0.586151 20.0508 0.463104 20.127ZM4.09006 21.1817C4.09592 21.1875 4.06076 22.8867 4.00217 24.9492L3.90256 28.7051L2.49631 28.67C1.71701 28.6524 1.07248 28.6289 1.06076 28.6172C1.04904 28.6055 1.0842 27.0352 1.13693 25.125C1.18967 23.2149 1.23068 21.5274 1.23068 21.375V21.0996L2.65451 21.1348C3.43381 21.1524 4.07834 21.1758 4.09006 21.1817ZM9.39279 21.9668C9.64474 22.0313 10.219 22.2598 10.6643 22.4707C11.8947 23.0508 12.0588 23.0801 14.2092 23.1446C16.6994 23.2207 16.8518 23.2325 17.2561 23.3848C17.7307 23.5606 18.2697 24.0938 18.4397 24.5508C18.51 24.7266 18.5569 24.8731 18.551 24.8789C18.551 24.8789 17.3615 24.8496 15.9084 24.8028C14.4612 24.7617 13.2131 24.7383 13.1369 24.7559C12.9201 24.8086 12.7737 24.9961 12.7737 25.2305C12.7737 25.5 12.8498 25.6348 13.049 25.711C13.1487 25.752 14.1799 25.7989 15.5862 25.8399C19.6526 25.9453 19.301 25.9512 19.4768 25.7871C19.6115 25.6582 19.6291 25.5996 19.6291 25.2246V24.8028L21.4631 23.9356C23.9006 22.7754 23.9123 22.7696 24.3166 22.8106C24.6272 22.834 25.1369 23.0391 25.1369 23.1328C25.1369 23.1563 23.2854 24.375 21.0178 25.8399C17.2326 28.295 16.8576 28.5176 16.3479 28.6934C15.6154 28.9395 14.7776 29.0332 14.1096 28.9512C13.8049 28.916 12.3869 28.5469 10.4651 28.0078C8.73068 27.5215 7.14865 27.1055 6.94943 27.0879C6.4631 27.0469 5.83029 27.1875 5.3381 27.4512L4.9631 27.6504L5.00412 26.4375C5.0217 25.7696 5.05685 24.6563 5.07443 23.959L5.11545 22.6934L5.41428 22.5176C5.9299 22.2071 6.59787 21.9785 7.38303 21.8321C7.73459 21.7676 8.94748 21.8496 9.39279 21.9668Z" fill="#1A1A1A"/>
</g>
</svg>
