<svg width="30" height="30" viewBox="0 0 30 30" fill="none" xmlns="http://www.w3.org/2000/svg">
<g id="Black">
<g id="Black_2">
<path id="Vector" d="M12.4873 0.138968C6.2974 1.17489 1.54972 5.74725 0.197074 11.9717C0.0179158 12.7933 0 13.1595 0 14.9634C0 17.2228 0.0985369 17.9104 0.662884 19.6697C0.994327 20.6699 1.83637 22.4114 2.40967 23.2687C5.3837 27.6714 10.4091 30.2254 15.6226 29.9843C22.6277 29.645 28.298 24.8226 29.794 17.9283C29.9642 17.1514 29.991 16.7316 30 15.0974C30 12.2486 29.7313 10.9894 29.0953 10.9894C28.7996 10.9894 24.1326 12.6504 23.9624 12.8112C23.8549 12.9273 23.828 13.0702 23.8638 13.4274C23.8907 13.6864 23.8997 14.4544 23.8997 15.142C23.8907 16.6245 23.7116 17.455 23.1024 18.732C22.6097 19.7858 22.2873 20.2413 21.4094 21.1522C20.218 22.3846 18.8205 23.2062 17.1454 23.6437C15.9719 23.9563 14.1624 23.9742 12.9979 23.6884C11.3138 23.2776 9.85369 22.4471 8.66229 21.2415C7.80233 20.3842 7.44401 19.8841 6.92446 18.8035C6.24366 17.3925 6.09137 16.6691 6.09137 14.9634C6.09137 13.7846 6.1272 13.4095 6.28844 12.8469C6.7453 11.1859 7.49776 9.89095 8.6802 8.70321C9.89848 7.47975 11.269 6.7028 12.9352 6.29201C13.4548 6.16698 13.9295 5.9973 13.9922 5.91693C14.0729 5.80976 14.0997 5.09533 14.0997 3.06813C14.0997 -0.316483 14.1893 -0.146805 12.4873 0.138968ZM12.8456 3.21995C12.8456 4.72026 12.8277 5.00603 12.7202 5.00603C12.1738 5.00603 10.1762 5.85442 9.18185 6.50633C8.45626 6.97964 7.10361 8.31027 6.59301 9.05149C5.16871 11.1144 4.51478 13.5971 4.78352 15.9725C5.0433 18.357 5.93013 20.2859 7.55151 21.9916C8.92207 23.4294 10.5166 24.376 12.4694 24.9029C13.2577 25.1083 13.4906 25.1351 14.9955 25.1351C16.5004 25.1351 16.7334 25.1083 17.5216 24.9029C20.5584 24.0813 23.0039 22.0541 24.3117 19.2679C24.9657 17.8836 25.3329 16.0083 25.2792 14.3472L25.2523 13.6506L26.8827 13.0791C27.7784 12.7665 28.5399 12.5522 28.5667 12.5879C28.5936 12.6326 28.6563 13.1773 28.719 13.8025C28.943 16.2137 28.513 18.5534 27.4022 20.8753C26.6945 22.3578 25.96 23.3669 24.6701 24.6618C21.9468 27.3767 18.7578 28.6983 14.9059 28.6805C11.3855 28.6716 8.09794 27.3499 5.56285 24.9297C4.16542 23.5902 3.3413 22.456 2.56196 20.8128C1.13765 17.8122 0.833085 14.7223 1.65721 11.5252C2.75007 7.29221 5.93013 3.72005 9.9791 2.16617C10.7316 1.88039 12.2813 1.45173 12.6038 1.4428L12.8456 1.43387V3.21995Z" fill="#1A1A1A"/>
<path id="Vector_2" d="M16.0976 0.139061C15.8916 0.281947 15.8916 0.281946 15.8916 3.03251C15.8916 5.09543 15.9185 5.80986 16.0081 5.91702C16.0618 5.9974 16.5276 6.15814 17.0293 6.28317C19.2956 6.84578 21.1947 8.17641 22.4936 10.1143C22.9236 10.7662 23.1296 10.9895 23.3087 11.0252C23.6402 11.0966 28.3252 9.45346 28.5491 9.19447C28.7641 8.92656 28.7462 8.74796 28.3968 8.05138C27.3219 5.93488 25.4318 3.84517 23.3267 2.43417C21.4903 1.21964 18.9104 0.264087 16.8322 0.049757C16.4112 0.00510502 16.2499 0.0229654 16.0976 0.139061ZM18.3371 1.6483C20.8095 2.27342 22.8429 3.4433 24.7241 5.31869C25.4855 6.07777 25.9872 6.67611 26.444 7.36374C26.8023 7.89957 27.089 8.36395 27.089 8.39074C27.089 8.45325 23.9806 9.56062 23.8104 9.56062C23.7566 9.56062 23.5864 9.36415 23.4252 9.12303C22.9952 8.45325 21.9651 7.39054 21.1588 6.7922C20.2899 6.14028 18.8925 5.44371 17.8892 5.16687L17.1457 4.96147V3.19325C17.1457 1.14819 17.0113 1.31787 18.3371 1.6483Z" fill="#1A1A1A"/>
<path id="Vector_3" d="M18.1035 10.8823C17.9691 11.0341 17.9512 11.4538 17.9512 15.026C17.9512 18.7589 17.9601 19.0089 18.1124 19.1429C18.2557 19.2679 18.4976 19.2947 19.6711 19.2947C20.8983 19.2947 21.0775 19.2768 21.2029 19.1339C21.3373 18.9821 21.3552 18.5624 21.3552 14.9902C21.3552 11.2573 21.3462 11.0073 21.1939 10.8733C21.0506 10.7483 20.8087 10.7215 19.6353 10.7215C18.408 10.7215 18.2289 10.7394 18.1035 10.8823ZM20.1011 15.0081V18.0444H19.6532H19.2053V15.0081V11.9718H19.6532H20.1011V15.0081Z" fill="#1A1A1A"/>
<path id="Vector_4" d="M13.4453 12.9362C13.3109 13.0881 13.293 13.4363 13.293 16.0529C13.293 18.7946 13.3019 19.0089 13.4542 19.1429C13.5975 19.2679 13.8394 19.2947 15.0129 19.2947C16.2401 19.2947 16.4193 19.2768 16.5447 19.1339C16.6791 18.9821 16.697 18.6338 16.697 16.0172C16.697 13.2756 16.688 13.0613 16.5357 12.9273C16.3924 12.8023 16.1505 12.7755 14.9771 12.7755C13.7498 12.7755 13.5707 12.7934 13.4453 12.9362ZM15.4429 16.0351V18.0444H14.995H14.5471V16.0351V14.0257H14.995H15.4429V16.0351Z" fill="#1A1A1A"/>
<path id="Vector_5" d="M8.83184 15.0617C8.63477 15.1956 8.63477 15.2314 8.63477 17.0978C8.63477 18.8303 8.65268 19.0089 8.79601 19.1429C8.93933 19.2679 9.1812 19.2947 10.3547 19.2947C11.5819 19.2947 11.7611 19.2768 11.8865 19.1339C12.0209 18.991 12.0388 18.7142 12.0388 17.0799C12.0388 14.7402 12.1731 14.9188 10.3368 14.9188C9.29765 14.9188 8.99308 14.9456 8.83184 15.0617ZM10.7847 17.1067V18.0444H10.3368H9.88887V17.1067V16.169H10.3368H10.7847V17.1067Z" fill="#1A1A1A"/>
</g>
</g>
</svg>
