<svg width="25" height="25" viewBox="0 0 25 25" fill="none" xmlns="http://www.w3.org/2000/svg">
<g id="bxs:home">
<path id="Vector" d="M22.277 13.1792L22.2785 13.1809C22.3489 13.2584 22.3952 13.3547 22.4118 13.4581C22.4284 13.5615 22.4146 13.6675 22.372 13.7632C22.3294 13.8588 22.2599 13.94 22.172 13.9969C22.0841 14.0537 21.9815 14.0837 21.8768 14.0833H21.8747H19.7913H19.2913V14.5833V21.875C19.2913 22.0186 19.2343 22.1564 19.1327 22.258C19.0311 22.3595 18.8933 22.4166 18.7497 22.4166H15.6247C15.481 22.4166 15.3432 22.3596 15.2416 22.258C15.1401 22.1564 15.083 22.0186 15.083 21.875V17.7083V17.2083H14.583H10.4163H9.91632V17.7083V21.875C9.91632 22.0186 9.85926 22.1564 9.75767 22.258C9.65609 22.3596 9.51832 22.4166 9.37466 22.4166H6.24966C6.106 22.4166 5.96822 22.3596 5.86664 22.258C5.76506 22.1564 5.70799 22.0186 5.70799 21.875V14.5833V14.0833H5.20799H3.12466C2.91014 14.0833 2.71691 13.9574 2.63073 13.763L2.63004 13.7614C2.58734 13.666 2.5733 13.5602 2.58962 13.4569C2.60594 13.3536 2.65191 13.2573 2.72195 13.1797L2.72235 13.1792L12.0973 2.76256L12.0977 2.76217C12.2938 2.5438 12.7055 2.5438 12.9016 2.76217L12.902 2.76256L22.277 13.1792Z" fill="#1A1A1A" stroke="#1A1A1A"/>
</g>
</svg>
