<svg width="23" height="23" viewBox="0 0 23 23" fill="none" xmlns="http://www.w3.org/2000/svg">
<g id="graph (1) 1 (traced)" clip-path="url(#clip0_386_5933)">
<g id="Black">
<path id="Vector" d="M17.4658 1.01521C17.3984 1.05115 17.3221 1.11853 17.2951 1.16795C17.2367 1.27576 17.2367 1.5992 17.2951 1.70701C17.3939 1.89568 17.4883 1.90916 18.8808 1.93162L20.224 1.95408L19.5547 2.51111C14.5459 6.68435 8.54433 9.39763 2.04413 10.4219C1.22655 10.5476 1.18612 10.5611 1.06933 10.6914C0.925577 10.8486 0.903116 11.0687 1.01093 11.2754C1.15019 11.5449 1.33886 11.5584 2.49784 11.3652C9.0205 10.2916 15.1074 7.52888 20.1027 3.3781C20.3992 3.13103 20.6463 2.93787 20.6553 2.94236C20.6598 2.94685 20.5475 3.44099 20.3947 4.03396C20.0803 5.29177 20.0713 5.43103 20.2555 5.6197C20.4396 5.80388 20.7361 5.80388 20.9338 5.6242C21.0596 5.51189 21.1 5.37263 21.5627 3.51736C21.8322 2.42127 22.0568 1.46443 22.0568 1.38806C22.0568 1.28924 22.0119 1.20388 21.9041 1.09607L21.7514 0.943336H19.667C17.9195 0.947828 17.5691 0.956813 17.4658 1.01521Z" fill="#1A1A1A"/>
<path id="Vector_2" d="M15.5564 7.72656C15.4801 7.77148 15.3902 7.85234 15.3678 7.90176C15.3318 7.96465 15.3184 9.99512 15.3184 14.5277V21.0684H14.8467H14.375V15.9338V10.7992L14.2357 10.6645L14.101 10.5342H11.5H8.89902L8.76426 10.6645L8.625 10.7992V15.9338V21.0684H8.15332H7.68164V17.3938C7.68164 13.3598 7.69961 13.6023 7.41211 13.4541C7.21445 13.3508 2.34941 13.3553 2.15625 13.4541C1.87324 13.5979 1.88672 13.4316 1.88672 17.4297V21.0684H1.56777C1.2668 21.0684 1.23984 21.0773 1.09609 21.2211C0.970312 21.3469 0.943359 21.4098 0.943359 21.5625C0.943359 21.7152 0.970312 21.7781 1.09609 21.9039L1.24883 22.0566H11.5H21.7512L21.9039 21.9039C22.0297 21.7781 22.0566 21.7152 22.0566 21.5625C22.0566 21.4098 22.0297 21.3469 21.9039 21.2211C21.7602 21.0773 21.7332 21.0684 21.4322 21.0684H21.1133V14.5547C21.1133 7.39414 21.1313 7.85234 20.8438 7.7041C20.7314 7.6457 20.3586 7.63672 18.2068 7.63672C15.8035 7.63672 15.6957 7.64121 15.5564 7.72656ZM20.125 14.8467V21.0684H18.2158H16.3066V14.8467V8.625H18.2158H20.125V14.8467ZM13.3867 16.2842V21.0684H11.5H9.61328V16.2842V11.5H11.5H13.3867V16.2842ZM6.69336 17.7217V21.0684H4.78418H2.875V17.7217V14.375H4.78418H6.69336V17.7217Z" fill="#1A1A1A"/>
</g>
</g>
<defs>
<clipPath id="clip0_386_5933">
<rect width="23" height="23" fill="white"/>
</clipPath>
</defs>
</svg>
