<svg width="23" height="23" viewBox="0 0 23 23" fill="none" xmlns="http://www.w3.org/2000/svg">
<g id="graph (2) 1 (traced)" clip-path="url(#clip0_407_6231)">
<g id="Black">
<path id="Vector" d="M17.4658 1.01521C17.3041 1.10056 17.2502 1.20838 17.2502 1.43748C17.2502 1.67107 17.3086 1.77888 17.4748 1.86423C17.5826 1.91814 17.8387 1.93162 18.9213 1.93162L20.2375 1.93611L20.0803 2.07088C19.9949 2.14724 19.6221 2.4572 19.2492 2.75818C14.3078 6.79666 8.41855 9.4156 2.04413 10.4219C1.22655 10.5476 1.18612 10.5611 1.06933 10.6914C0.925577 10.8486 0.903116 11.0687 1.01093 11.2754C1.15019 11.5449 1.33886 11.5584 2.49784 11.3652C9.00702 10.2916 15.1389 7.51541 20.0937 3.39607C20.4082 3.13552 20.6642 2.92888 20.6642 2.94236C20.6642 2.95584 20.543 3.44998 20.3947 4.04295C20.0803 5.29177 20.0713 5.43103 20.2555 5.6197C20.4396 5.80388 20.7361 5.80388 20.9338 5.6242C21.0596 5.51189 21.1 5.37263 21.5627 3.51736C21.8322 2.42127 22.0568 1.46443 22.0568 1.38806C22.0568 1.28924 22.0119 1.20388 21.9041 1.09607L21.7514 0.943336H19.667C17.9195 0.947828 17.5691 0.956813 17.4658 1.01521Z" fill="#1A1A1A"/>
<path id="Vector_2" d="M15.6059 7.68164C15.552 7.69961 15.4666 7.77598 15.4127 7.84336L15.3184 7.96465V13.8674C15.3184 20.2238 15.3094 19.9543 15.5385 20.0801C15.5969 20.107 16.5313 20.125 18.2249 20.125C20.8034 20.125 20.8258 20.125 20.9291 20.0307C20.9831 19.9813 21.0459 19.8869 21.0729 19.824C21.0954 19.7566 21.1133 17.4072 21.1133 13.8764C21.1133 7.46152 21.1313 7.85234 20.8438 7.7041C20.7315 7.6457 20.3631 7.63672 18.2069 7.64121C16.8278 7.64121 15.6553 7.65918 15.6059 7.68164Z" fill="#1A1A1A"/>
<path id="Vector_3" d="M8.87656 10.5791C8.61152 10.7184 8.62949 10.4264 8.625 15.3318V19.8645L8.75527 19.9947L8.88555 20.125H11.5H14.1145L14.2447 19.9947L14.375 19.8645V15.3318V10.7992L14.2807 10.6959C14.2312 10.642 14.1369 10.5791 14.074 10.5521C14.0111 10.5297 12.924 10.5117 11.4865 10.5117C9.35723 10.5117 8.98887 10.5207 8.87656 10.5791Z" fill="#1A1A1A"/>
<path id="Vector_4" d="M2.12984 13.4721C2.05348 13.517 1.96813 13.6158 1.93668 13.6832C1.90074 13.782 1.88727 14.5771 1.89625 16.8322L1.90973 19.851L2.04 19.9857L2.17477 20.125H4.77574C6.4693 20.125 7.40367 20.107 7.46207 20.0801C7.68219 19.9588 7.68219 19.9857 7.68219 16.7469C7.68219 13.4271 7.69566 13.6023 7.41266 13.4541C7.30035 13.3957 6.91402 13.3867 4.77574 13.3867C2.40387 13.3867 2.26012 13.3912 2.12984 13.4721Z" fill="#1A1A1A"/>
<path id="Vector_5" d="M1.09629 21.2211C0.880664 21.4367 0.880664 21.6883 1.09629 21.9039L1.24902 22.0566H11.5002H21.7514L21.9041 21.9039C22.0299 21.7781 22.0568 21.7152 22.0568 21.5625C22.0568 21.4098 22.0299 21.3469 21.9041 21.2211L21.7514 21.0684H11.5002H1.24902L1.09629 21.2211Z" fill="#1A1A1A"/>
</g>
</g>
<defs>
<clipPath id="clip0_407_6231">
<rect width="23" height="23" fill="white"/>
</clipPath>
</defs>
</svg>
