<svg width="25" height="25" viewBox="0 0 25 25" fill="none" xmlns="http://www.w3.org/2000/svg">
<g id="stock-market 1 (traced)">
<g id="Black">
<path id="Vector" d="M3.48145 2.25098C2.96387 2.41699 2.50977 2.82715 2.25098 3.36914L2.12402 3.6377V10.791V17.9443L2.25586 18.2275C2.41699 18.5742 2.80273 18.9844 3.12988 19.165C3.6084 19.4238 3.71094 19.4336 5.94727 19.4336C7.08008 19.4336 8.00781 19.4434 8.00781 19.458C8.00781 19.4727 7.54883 20.1123 6.98242 20.8838C5.86426 22.417 5.83008 22.4854 6.0791 22.7295L6.19629 22.8516H12.5H18.8037L18.9307 22.7246C19.165 22.4902 19.1113 22.3828 17.998 20.8594C17.4463 20.1025 16.9922 19.4678 16.9922 19.458C16.9922 19.4434 17.9199 19.4336 19.0576 19.4336C21.2451 19.4336 21.3721 19.4189 21.8213 19.1895C22.1631 19.0186 22.5439 18.6279 22.7197 18.2666L22.876 17.9443V10.791V3.6377L22.749 3.36914C22.4854 2.81738 22.0361 2.41211 21.499 2.24609C21.1865 2.14844 21.0693 2.14844 12.4805 2.15332C3.99414 2.15332 3.7793 2.1582 3.48145 2.25098ZM21.3672 3.11035C21.6113 3.24219 21.8408 3.47656 21.958 3.70605C22.041 3.87207 22.0459 4.25293 22.0605 10.7324L22.0703 17.583L21.9678 17.8223C21.748 18.335 21.2695 18.6035 20.5713 18.6035H20.2148L20.2051 14.2334L20.1904 9.86816L20.0781 9.75586C19.9707 9.64355 19.9609 9.64355 18.3447 9.62891C17.4561 9.61914 16.6748 9.62891 16.6113 9.64355C16.5527 9.6582 16.46 9.71191 16.4062 9.76562C16.3086 9.86328 16.3086 9.94629 16.3086 14.2334V18.6035H15.3809H14.4531V15.0195C14.4531 11.4697 14.4531 11.4355 14.3506 11.3086L14.2529 11.1816H12.5H10.7471L10.6494 11.3086C10.5469 11.4355 10.5469 11.4697 10.5469 15.0195V18.6035H9.61914H8.69141V15.7715C8.69141 13.0176 8.68652 12.9346 8.59375 12.8418C8.54004 12.7881 8.44727 12.7344 8.38867 12.7197C8.3252 12.7051 7.54395 12.6953 6.65527 12.7051C5.03906 12.7197 5.0293 12.7197 4.92188 12.832L4.80957 12.9443L4.79492 15.7715L4.78516 18.6035H4.42871C3.73535 18.6035 3.28125 18.3545 3.04688 17.8467L2.92969 17.6025V10.8105C2.92969 5.80078 2.94434 3.97461 2.98828 3.85254C3.06641 3.62305 3.2666 3.34961 3.45215 3.22266C3.82324 2.96875 3.35449 2.9834 12.5732 2.99316L21.167 3.00293L21.3672 3.11035ZM19.3359 14.5508V18.6035H18.2373H17.1387V14.5508V10.498H18.2373H19.3359V14.5508ZM13.623 15.3076V18.6035H12.5H11.377V15.3076V12.0117H12.5H13.623V15.3076ZM7.86133 16.0889V18.6035H6.7627H5.66406V16.0889V13.5742H6.7627H7.86133V16.0889ZM16.8262 20.7178L17.7637 21.9971L15.1318 22.0117C13.6865 22.0166 11.3184 22.0166 9.86816 22.0117L7.24121 21.9971L8.17383 20.7178L9.10645 19.4336H12.5H15.8936L16.8262 20.7178Z" fill="#1A1A1A"/>
<path id="Vector_2" d="M18.4374 3.95998C17.9442 4.0381 17.5048 4.44826 17.3534 4.96584C17.2802 5.22462 17.2802 5.39552 17.3583 5.81056C17.3778 5.91798 17.2899 6.01076 16.6405 6.57228L15.9032 7.21193L15.6639 7.11916C15.2489 6.96291 14.7313 7.01662 14.3798 7.25587L14.1991 7.37794L13.2274 6.80177L12.2557 6.23048V5.90822C12.2557 5.29298 11.997 4.85353 11.4891 4.60451C10.9374 4.33595 10.2245 4.46291 9.83387 4.89259C9.56043 5.19533 9.45301 5.48341 9.45301 5.88869L9.45789 6.23537L7.9784 6.97267C6.50379 7.70998 6.50379 7.70998 6.4159 7.60744C6.24012 7.42189 5.95203 7.30958 5.56141 7.28517C5.23914 7.26564 5.15125 7.28029 4.92664 7.38283C4.55555 7.55373 4.37 7.72462 4.21375 8.04689C4.02332 8.43263 4.02332 8.94533 4.20887 9.30177C4.75574 10.3467 6.19129 10.3662 6.72352 9.33107C6.84559 9.09669 6.88465 8.96486 6.88465 8.75978V8.49611L8.4032 7.73927L9.91688 6.97755L10.2147 7.12892C10.6688 7.35353 11.2401 7.32912 11.6259 7.06544L11.7919 6.95314L12.7684 7.53419L13.745 8.11037L13.7499 8.43751C13.7548 9.07228 14.1405 9.60451 14.7216 9.79005C15.4296 10.0098 16.2499 9.61916 16.4745 8.94533C16.5624 8.6963 16.577 8.26173 16.5087 8.02248C16.4647 7.86623 16.4696 7.86134 17.1971 7.22169L17.9345 6.57716L18.1835 6.66994C18.7206 6.86525 19.3309 6.74318 19.7118 6.36232C19.9852 6.08888 20.0878 5.84962 20.1073 5.40529C20.1268 5.05373 20.1171 5.00001 19.9706 4.70705C19.6923 4.13576 19.1063 3.85255 18.4374 3.95998ZM19.0624 4.93654C19.2821 5.12697 19.3358 5.36623 19.2089 5.6006C18.9989 5.99123 18.5057 6.01076 18.2567 5.63478C17.91 5.10744 18.5888 4.51662 19.0624 4.93654ZM11.1815 5.41994C11.4647 5.62013 11.494 6.02052 11.2352 6.26955C10.8593 6.62599 10.3026 6.3672 10.3026 5.83009C10.3026 5.56642 10.5614 5.32228 10.8397 5.32228C10.9667 5.32228 11.0985 5.36134 11.1815 5.41994ZM15.3856 7.93458C15.5614 8.02736 15.7225 8.27638 15.7225 8.45216C15.7225 8.77931 15.3319 9.0674 15.0145 8.97951C14.5311 8.84279 14.453 8.16408 14.9022 7.94435C15.1073 7.84181 15.2001 7.84181 15.3856 7.93458ZM5.71766 8.17873C5.88367 8.26662 6.05457 8.52052 6.05457 8.68166C6.05457 8.97951 5.7909 9.22853 5.46375 9.22853C5.19031 9.22853 4.93152 8.98439 4.93152 8.72072C4.93152 8.47169 5.05359 8.25685 5.23914 8.17873C5.44422 8.09083 5.54188 8.09083 5.71766 8.17873Z" fill="#1A1A1A"/>
</g>
</g>
</svg>
